<?xml version="1.0" encoding="utf-8"?>
<!-- Generator: Adobe Illustrator 18.0.0, SVG Export Plug-In . SVG Version: 6.00 Build 0)  -->
<!DOCTYPE svg PUBLIC "-//W3C//DTD SVG 1.1//EN" "http://www.w3.org/Graphics/SVG/1.1/DTD/svg11.dtd">
<svg version="1.1" id="Calque_1" xmlns="http://www.w3.org/2000/svg" xmlns:xlink="http://www.w3.org/1999/xlink" x="0px" y="0px"
	 viewBox="0 0 549.2 424.7" enable-background="new 0 0 549.2 424.7" xml:space="preserve">
<g id="_x34__icones">
	<path id="XMLID_37_" fill="#DF4A4A" d="M225.6,127.6l-32.3-51.2c-3.2-5.1-3.2-11.7,0-16.8l27.1-43.1C232.5,0,232.5,0,251.6,0H306
		c6.5,0,12.5,3.2,15.8,8.4l32.3,51.2c3.2,5.1,3.2,11.7,0,16.8l-32.3,51.2c-3.3,5.2-9.3,8.4-15.8,8.4h-64.6
		C234.9,136,228.9,132.8,225.6,127.6z"/>
	<path id="XMLID_53_" fill="#364A5E" d="M162.7,204.3l-30.9-47.9c-3.8-5.8-10.7-9.4-18.2-9.4H51.8c-7.5,0-14.5,3.6-18.2,9.4
		L2.8,204.3c-3.8,5.9-3.8,13.1,0,18.9l30.9,48.1c3.8,5.8,10.7,9.6,18.2,9.6h61.8c7.5,0,14.5-3.8,18.2-9.6l30.9-48
		C166.5,217.5,166.5,210.2,162.7,204.3z"/>
	<path id="XMLID_47_" fill="#EFCA4D" d="M224.6,415.3l-30.9-48c-3.8-5.9-3.8-13.1,0-19l30.9-48c3.8-5.9,10.7-9.5,18.2-9.5h61.8
		c7.5,0,14.5,3.6,18.2,9.5l30.9,48c3.8,5.9,3.8,13.1,0,19l-30.9,48c-3.8,5.9-10.7,9.5-18.2,9.5h-61.8
		C235.3,424.7,228.4,421.1,224.6,415.3z"/>
	<path id="XMLID_48_" fill="#E27A3E" d="M417.6,272l-31.4-48.9c-3.6-5.6-3.6-12.5,0-18.1l31.4-48.9c3.6-5.6,10.2-9,17.3-9h62.8
		c7.2,0,13.8,3.4,17.3,9l31.4,48.9c3.6,5.6,3.6,12.5,0,18.1L515.1,272c-3.6,5.6-10.2,9-17.3,9h-62.8
		C427.8,281,421.2,277.6,417.6,272z"/>
	
		<text id="XMLID_49_" transform="matrix(1 0 0 1 13.5584 223.498)" fill="#FFFFFF" stroke="#FFFFFF" stroke-miterlimit="10" font-family="'MyriadPro-Regular'" font-size="24">Compétences</text>
	
		<text id="XMLID_54_" transform="matrix(1 0 0 1 423.0066 222.4971)" fill="#FFFFFF" stroke="#FFFFFF" stroke-miterlimit="10" font-family="'MyriadPro-Regular'" font-size="24">Parcours</text>
	
		<text id="XMLID_55_" transform="matrix(1 0 0 1 216.81 72.0005)" fill="#FFFFFF" stroke="#FFFFFF" stroke-miterlimit="10" font-family="'MyriadPro-Regular'" font-size="24">Formations</text>
	<text id="XMLID_51_" transform="matrix(1 0 0 1 255.5343 350.493)"><tspan x="0" y="0" fill="#010101" font-family="'MyriadPro-Regular'" font-size="24"> Me</tspan><tspan x="-29.5" y="28.8" fill="#010101" font-family="'MyriadPro-Regular'" font-size="24">contacter</tspan></text>
</g>
<path fill="#FFFFFF" stroke="#A7A9AC" stroke-miterlimit="10" d="M394.4,280.6c0,0-27.4,0-63.6,0c-2.3,0-5.1-0.2-8.1-0.5
	c-16.4-5-32.4-16-47.4-17c-16-1-32,12-49,15.9c-2.1,0.4-3.9,0.6-7.9,1.7c-35,0-61.2,0-61.2,0l60.3-66.8L157.2,147c0,0,25.1,0,58.9,0
	c2.2,0.3,4.2,0.5,6.5,0.8c2.3,0.3,4.7,0.6,7.8,1.2c14.9,7.1,30.9,18.1,45.9,18.1c14,1,27-13,41.7-17.8c3-0.8,6.1-1.6,9.6-2.2
	c37.8,0,66.8,0,66.8,0L336,213.8L394.4,280.6z"/>
<text transform="matrix(0.4879 0 0 1 219.4631 228.2852)" fill="#010101" stroke="#000000" stroke-miterlimit="10" font-family="'MyriadPro-Regular'" font-size="48.75">Mes projets</text>
</svg>
