<?xml version="1.0" encoding="utf-8"?>
<!-- Generator: Adobe Illustrator 18.0.0, SVG Export Plug-In . SVG Version: 6.00 Build 0)  -->
<!DOCTYPE svg PUBLIC "-//W3C//DTD SVG 1.1//EN" "http://www.w3.org/Graphics/SVG/1.1/DTD/svg11.dtd">
<svg version="1.1" id="Calque_1" xmlns="http://www.w3.org/2000/svg" xmlns:xlink="http://www.w3.org/1999/xlink" x="0px" y="0px"
	 viewBox="0 0 1037.6 541.1" enable-background="new 0 0 1037.6 541.1" xml:space="preserve">
<g>
	<g>
		<line fill="none" stroke="#010101" stroke-width="10" stroke-miterlimit="10" x1="157.6" y1="33.2" x2="157.6" y2="532.2"/>
		<circle fill="#F3F3F3" stroke="#010101" stroke-width="10" stroke-miterlimit="10" cx="157.6" cy="22.2" r="11"/>
		<circle fill="#F3F3F3" stroke="#010101" stroke-width="10" stroke-miterlimit="10" cx="157.6" cy="265.2" r="11"/>
		<circle fill="#F3F3F3" stroke="#010101" stroke-width="10" stroke-miterlimit="10" cx="157.6" cy="521.2" r="11"/>
		
			<text transform="matrix(1 0 0 1 207.7731 33.1611)" fill="#2E368F" stroke="#2E368F" stroke-miterlimit="10" font-family="'PerpetuaTitlingMT-Light'" font-size="38">3 ANS</text>
		<text transform="matrix(1 0 0 1 3.7877 33.1611)" fill="#010101" font-family="'PerpetuaTitlingMT-Light'" font-size="38">2015</text>
		<text transform="matrix(1 0 0 1 2.5912 276.0747)" fill="#010101" font-family="'PerpetuaTitlingMT-Light'" font-size="38">2012</text>
		
			<text transform="matrix(1 0 0 1 -9.155273e-005 532.1606)" fill="#010101" font-family="'PerpetuaTitlingMT-Light'" font-size="38">2009</text>
		<g>
			
				<text transform="matrix(1 0 0 1 222.5766 276.0747)" fill="#2E368F" stroke="#2E368F" stroke-miterlimit="10" font-family="'PerpetuaTitlingMT-Light'" font-size="38">2 ans</text>
		</g>
		
			<text transform="matrix(1 0 0 1 230.3816 532.1606)" fill="#2E368F" stroke="#2E368F" stroke-miterlimit="10" font-family="'PerpetuaTitlingMT-Light'" font-size="38">6 ans</text>
	</g>
	<text transform="matrix(1 0 0 1 373.5314 33.1618)" font-family="'FranklinGothic-Medium'" font-size="30">Administrateur des ventes back office chez Arkadin</text>
	<text transform="matrix(1 0 0 1 373.5319 276.1616)" font-family="'FranklinGothic-Medium'" font-size="30">Chargé d&apos;affaires chez SGS</text>
	<text transform="matrix(1 0 0 1 373.5319 532.1606)" font-family="'FranklinGothic-Medium'" font-size="30">Gestionnaire administratif dans l&apos;armée de l&apos;air</text>
</g>
</svg>
