<?xml version="1.0" encoding="utf-8"?>
<!-- Generator: Adobe Illustrator 18.0.0, SVG Export Plug-In . SVG Version: 6.00 Build 0)  -->
<!DOCTYPE svg PUBLIC "-//W3C//DTD SVG 1.1//EN" "http://www.w3.org/Graphics/SVG/1.1/DTD/svg11.dtd">
<svg version="1.1" id="Calque_1" xmlns="http://www.w3.org/2000/svg" xmlns:xlink="http://www.w3.org/1999/xlink" x="0px" y="0px"
	 viewBox="0 0 960 560" enable-background="new 0 0 960 560" xml:space="preserve">
<path id="XMLID_37_" fill="#006894" stroke="#000000" stroke-miterlimit="10" d="M671.3,306.9L646,262.1c-2.7-4.7-2.7-10.5,0-15.2l25.2-44.8
	c2.6-4.7,7.5-7.6,12.8-7.6h50.5c5.3,0,10.2,2.9,12.8,7.6l25.2,44.8c2.7,4.7,2.7,10.5,0,15.2l-25.2,44.8c-2.6,4.7-7.5,7.6-12.8,7.6
	h-50.5C678.8,314.5,673.9,311.6,671.3,306.9z"/>
<path id="XMLID_53_" fill="#006894" stroke="#000000" stroke-miterlimit="10" d="M417.9,306.9l-25.2-44.8c-2.7-4.7-2.7-10.5,0-15.2l25.2-44.8
	c2.6-4.7,7.5-7.6,12.8-7.6h50.5c5.3,0,10.2,2.9,12.8,7.6l25.2,44.8c2.7,4.7,2.7,10.5,0,15.2l-25.2,44.8c-2.6,4.7-7.5,7.6-12.8,7.6
	h-50.5C425.5,314.5,420.6,311.6,417.9,306.9z"/>
<path id="XMLID_47_" fill="#006894" stroke="#000000" stroke-miterlimit="10" d="M630.2,161.8l-40.8,24.3c-4.3,2.5-9.6,2.5-13.9,0l-40.8-24.3
	c-4.3-2.5-6.9-7.2-6.9-12.3V101c0-5.1,2.6-9.8,6.9-12.3l40.8-24.3c4.3-2.5,9.6-2.5,13.9,0l40.8,24.3c4.3,2.5,6.9,7.2,6.9,12.3v48.6
	C637.1,154.6,634.5,159.3,630.2,161.8z"/>
<path id="XMLID_48_" fill="#006894" stroke="#000000" stroke-miterlimit="10" d="M630.2,421.8l-40.8,24.3c-4.3,2.5-9.6,2.5-13.9,0l-40.8-24.3
	c-4.3-2.5-6.9-7.2-6.9-12.3V361c0-5.1,2.6-9.8,6.9-12.3l40.8-24.3c4.3-2.5,9.6-2.5,13.9,0l40.8,24.3c4.3,2.5,6.9,7.2,6.9,12.3v48.6
	C637.1,414.6,634.5,419.3,630.2,421.8z"/>
<path id="projet" fill="#FFFFFF" stroke="#000000" stroke-miterlimit="10" d="M640.6,262.1c-2.7-4.7-2.7-10.5,0-15.2l22.9-40.6v-32.8h-42.9
	l-31,18.5c-4.3,2.5-9.6,2.5-13.9,0l-31-18.5h-43.3v31.7l23.5,41.7c2.7,4.7,2.7,10.5,0,15.2l-23.5,41.7v31.7h44.1l30.1-18.2
	c4.3-2.5,9.6-2.4,13.9,0.1l30.1,18h43.8v-32.8L640.6,262.1z"/>
<text id="XMLID_55_" transform="matrix(1 0 0 1 555.333 127.2579)" font-family="'MyriadPro-Regular'" font-size="12">Formations</text>
<text id="projet_text" transform="matrix(1 0 0 1 559.9997 259.5002)" font-family="'MyriadPro-Regular'" font-size="12">PROJETS</text>
<text id="XMLID_51_" transform="matrix(1 0 0 1 551.3333 392)" font-family="'MyriadPro-Regular'" font-size="12">Me contacter</text>
<text id="XMLID_54_" transform="matrix(1 0 0 1 688.9993 257.5)" font-family="'MyriadPro-Regular'" font-size="12">Parcours</text>
<text id="XMLID_49_" transform="matrix(1 0 0 1 423 258.3332)" font-family="'MyriadPro-Regular'" font-size="12">Compétences</text>
</svg>
