<?xml version="1.0" encoding="utf-8"?>
<!-- Generator: Adobe Illustrator 18.0.0, SVG Export Plug-In . SVG Version: 6.00 Build 0)  -->
<!DOCTYPE svg PUBLIC "-//W3C//DTD SVG 1.1//EN" "http://www.w3.org/Graphics/SVG/1.1/DTD/svg11.dtd">
<svg version="1.1" id="Calque_1" xmlns="http://www.w3.org/2000/svg" xmlns:xlink="http://www.w3.org/1999/xlink" x="0px" y="0px"
	 viewBox="0 0 814.4 969" enable-background="new 0 0 814.4 969" xml:space="preserve">
<rect x="255.3" y="111.9" stroke="#000000" stroke-miterlimit="10" width="7.4" height="800"/>
<circle fill="#FFFFFF" stroke="#000000" stroke-miterlimit="10" cx="259.1" cy="899.4" r="12.8"/>
<circle fill="#FFFFFF" stroke="#000000" stroke-miterlimit="10" cx="259.1" cy="492.4" r="12.8"/>
<circle fill="#FFFFFF" stroke="#000000" stroke-miterlimit="10" cx="259.1" cy="124.4" r="12.8"/>
<text transform="matrix(1 0 0 1 183.0678 907.969)" font-family="'MyriadPro-Regular'" font-size="24">2009</text>
<text transform="matrix(1 0 0 1 182.0682 499.9412)" font-family="'MyriadPro-Regular'" font-size="24">2012</text>
<text transform="matrix(1 0 0 1 184.0676 133.1016)" font-family="'MyriadPro-Regular'" font-size="24">2015</text>
<text transform="matrix(1 0 0 1 298.6008 907.969)" stroke="#000000" stroke-miterlimit="10" font-family="'MyriadPro-Regular'" font-size="24">Gestionnaire administratif dans l’armée de l’air</text>
<text transform="matrix(1 0 0 1 298.6007 498.5196)" stroke="#000000" stroke-miterlimit="10" font-family="'MyriadPro-Regular'" font-size="24">Chargé d’affaire chez SGS</text>
<text transform="matrix(1 0 0 1 294.6003 133.1015)" stroke="#000000" stroke-miterlimit="10" font-family="'MyriadPro-Regular'" font-size="24">Administrateur back office chez Arkadin</text>
<text transform="matrix(1 0 0 1 477.8165 938.4269)" fill="#2E3192" stroke="#2E3192" stroke-miterlimit="10" font-family="'MyriadPro-Regular'" font-size="24">6 ANS</text>
<text transform="matrix(1 0 0 1 398.5997 525.3661)" fill="#2E3192" stroke="#2E3192" stroke-miterlimit="10" font-family="'MyriadPro-Regular'" font-size="24">2 ANS</text>
<text transform="matrix(1 0 0 1 460.0105 159.9482)" fill="#2E3192" stroke="#2E3192" stroke-miterlimit="10" font-family="'MyriadPro-Regular'" font-size="24">3 ANS</text>
</svg>
