<?xml version="1.0" encoding="utf-8"?>
<!-- Generator: Adobe Illustrator 18.0.0, SVG Export Plug-In . SVG Version: 6.00 Build 0)  -->
<!DOCTYPE svg PUBLIC "-//W3C//DTD SVG 1.1//EN" "http://www.w3.org/Graphics/SVG/1.1/DTD/svg11.dtd">
<svg version="1.1" id="Calque_1" xmlns="http://www.w3.org/2000/svg" xmlns:xlink="http://www.w3.org/1999/xlink" x="0px" y="0px"
	 viewBox="0 0 548.3 18" enable-background="new 0 0 548.3 18" xml:space="preserve">
<g>
	<path d="M18.7,13V4.5h4.1c0.5,0,0.9,0.2,1.2,0.5s0.5,0.7,0.5,1.2v2.2c0,0.5-0.2,0.9-0.5,1.2s-0.7,0.5-1.2,0.5h-2.9V13
		c0,0.2-0.1,0.3-0.2,0.4s-0.2,0.2-0.4,0.2c-0.2,0-0.3-0.1-0.4-0.2S18.7,13.2,18.7,13z M19.9,9h2.9c0.2,0,0.3-0.1,0.4-0.2
		s0.2-0.2,0.2-0.4V6.3c0-0.2-0.1-0.3-0.2-0.4S23,5.7,22.8,5.7h-2.9V9z"/>
	<path d="M27.2,12.8l2.3-7.9c0.1-0.3,0.3-0.4,0.6-0.4c0.3,0,0.5,0.1,0.5,0.4l2.3,8c0,0.1,0,0.1,0,0.2c0,0.2-0.1,0.3-0.2,0.4
		s-0.2,0.2-0.4,0.2c-0.3,0-0.5-0.1-0.6-0.4l-0.5-1.6h-2.6l-0.5,1.7c0,0.1-0.1,0.1-0.2,0.2c-0.1,0.1-0.2,0.1-0.3,0.1
		c-0.2,0-0.3-0.1-0.4-0.2c-0.1-0.1-0.2-0.3-0.2-0.4C27.2,12.9,27.2,12.9,27.2,12.8z M30.1,7.2l-1,3.3h1.9L30.1,7.2z"/>
	<path d="M37,4.5h3c0.4,0,0.7,0.2,1,0.5s0.5,0.7,0.5,1.1c0,0.2-0.1,0.3-0.2,0.4s-0.2,0.2-0.4,0.2c-0.2,0-0.3,0-0.4-0.1
		s-0.1-0.3-0.2-0.5c-0.1-0.2-0.2-0.4-0.4-0.4H37c-0.1,0-0.2,0-0.2,0.1c0,0.1,0,0.1,0.1,0.2l4.3,5.4c0.2,0.3,0.3,0.5,0.3,0.8
		c0,0.3-0.1,0.6-0.4,0.9s-0.5,0.4-0.8,0.4h-3.1c-0.4,0-0.8-0.2-1.1-0.5s-0.5-0.7-0.5-1c0-0.4,0.2-0.6,0.6-0.6c0.2,0,0.3,0.1,0.4,0.2
		s0.2,0.2,0.2,0.4c0,0.1,0,0.2,0.1,0.3s0.2,0.1,0.3,0.1h2.9c0.1,0,0.2,0,0.2-0.1c0,0,0-0.1-0.1-0.2l-4.3-5.4
		c-0.2-0.3-0.3-0.5-0.3-0.8c0-0.4,0.1-0.7,0.4-0.9S36.6,4.5,37,4.5z"/>
	<path d="M45.4,4.5h3c0.4,0,0.7,0.2,1,0.5s0.5,0.7,0.5,1.1c0,0.2-0.1,0.3-0.2,0.4s-0.2,0.2-0.4,0.2c-0.2,0-0.3,0-0.4-0.1
		s-0.1-0.3-0.2-0.5c-0.1-0.2-0.2-0.4-0.4-0.4h-2.8c-0.1,0-0.2,0-0.2,0.1c0,0.1,0,0.1,0.1,0.2l4.3,5.4c0.2,0.3,0.3,0.5,0.3,0.8
		c0,0.3-0.1,0.6-0.4,0.9s-0.5,0.4-0.8,0.4h-3.1c-0.4,0-0.8-0.2-1.1-0.5s-0.5-0.7-0.5-1c0-0.4,0.2-0.6,0.6-0.6c0.2,0,0.3,0.1,0.4,0.2
		s0.2,0.2,0.2,0.4c0,0.1,0,0.2,0.1,0.3s0.2,0.1,0.3,0.1h2.9c0.1,0,0.2,0,0.2-0.1c0,0,0-0.1-0.1-0.2l-4.3-5.4
		c-0.2-0.3-0.3-0.5-0.3-0.8c0-0.4,0.1-0.7,0.4-0.9S45.1,4.5,45.4,4.5z"/>
	<path d="M57.8,5.7h-4.1v2.8h1.8c0.2,0,0.3,0.1,0.4,0.2S56,8.9,56,9.1c0,0.2-0.1,0.3-0.2,0.4s-0.2,0.2-0.4,0.2h-1.8v2.8h4.1
		c0.2,0,0.3,0.1,0.4,0.2s0.2,0.2,0.2,0.4s-0.1,0.3-0.2,0.4s-0.3,0.2-0.4,0.2h-5.2V4.5h5.2c0.2,0,0.3,0.1,0.4,0.2s0.2,0.3,0.2,0.4
		c0,0.2-0.1,0.3-0.2,0.4S57.9,5.7,57.8,5.7z"/>
	<path d="M61,13V4.5h4.1c0.5,0,0.9,0.2,1.2,0.5s0.5,0.7,0.5,1.2v0.7c0,0.5-0.2,0.9-0.5,1.2s-0.7,0.5-1.2,0.5h-0.7l2.3,4
		c0.1,0.1,0.1,0.2,0.1,0.4c0,0.2-0.1,0.3-0.2,0.4c-0.1,0.1-0.3,0.2-0.4,0.2c-0.2,0-0.4-0.1-0.5-0.3L63,8.6h-0.8V13
		c0,0.2-0.1,0.3-0.2,0.4s-0.3,0.2-0.4,0.2s-0.3-0.1-0.4-0.2S61,13.2,61,13z M62.2,7.5h2.9c0.2,0,0.3-0.1,0.4-0.2s0.2-0.2,0.2-0.4
		V6.3c0-0.2-0.1-0.3-0.2-0.4s-0.2-0.2-0.4-0.2h-2.9V7.5z"/>
	<path d="M77.9,13.6V5.1c0-0.2,0.1-0.3,0.2-0.4s0.2-0.2,0.4-0.2s0.3,0.1,0.4,0.2s0.2,0.2,0.2,0.4v7.4h4.1c0.2,0,0.3,0.1,0.4,0.2
		s0.2,0.2,0.2,0.4s-0.1,0.3-0.2,0.4s-0.3,0.2-0.4,0.2H77.9z"/>
	<path d="M86.4,12.8l2.3-7.9c0.1-0.3,0.3-0.4,0.6-0.4c0.3,0,0.5,0.1,0.5,0.4l2.3,8c0,0.1,0,0.1,0,0.2c0,0.2-0.1,0.3-0.2,0.4
		s-0.2,0.2-0.4,0.2c-0.3,0-0.5-0.1-0.6-0.4l-0.5-1.6H88l-0.5,1.7c0,0.1-0.1,0.1-0.2,0.2c-0.1,0.1-0.2,0.1-0.3,0.1
		c-0.2,0-0.3-0.1-0.4-0.2c-0.1-0.1-0.2-0.3-0.2-0.4C86.4,12.9,86.4,12.9,86.4,12.8z M89.3,7.2l-1,3.3h1.9L89.3,7.2z"/>
	<path d="M104.6,4.5h3c0.4,0,0.7,0.2,1,0.5s0.5,0.7,0.5,1.1c0,0.2-0.1,0.3-0.2,0.4s-0.2,0.2-0.4,0.2c-0.2,0-0.3,0-0.4-0.1
		s-0.1-0.3-0.2-0.5c-0.1-0.2-0.2-0.4-0.4-0.4h-2.8c-0.1,0-0.2,0-0.2,0.1c0,0.1,0,0.1,0.1,0.2l4.3,5.4c0.2,0.3,0.3,0.5,0.3,0.8
		c0,0.3-0.1,0.6-0.4,0.9s-0.5,0.4-0.8,0.4h-3.1c-0.4,0-0.8-0.2-1.1-0.5s-0.5-0.7-0.5-1c0-0.4,0.2-0.6,0.6-0.6c0.2,0,0.3,0.1,0.4,0.2
		s0.2,0.2,0.2,0.4c0,0.1,0,0.2,0.1,0.3s0.2,0.1,0.3,0.1h2.9c0.1,0,0.2,0,0.2-0.1c0,0,0-0.1-0.1-0.2l-4.3-5.4
		c-0.2-0.3-0.3-0.5-0.3-0.8c0-0.4,0.1-0.7,0.4-0.9S104.2,4.5,104.6,4.5z"/>
	<path d="M116,5.4l1.3,2.6c0.2,0.4,0.3,0.7,0.3,1.1c0,0.4-0.1,0.8-0.3,1.1l-1.3,2.5c-0.3,0.6-0.7,0.8-1.4,0.8
		c-0.3,0-0.6-0.1-0.8-0.2s-0.4-0.4-0.6-0.6l-1.3-2.5c-0.2-0.3-0.3-0.7-0.3-1.1s0.1-0.8,0.3-1.1l1.3-2.6c0.3-0.6,0.7-0.8,1.4-0.8
		C115.3,4.5,115.7,4.8,116,5.4z M114.3,5.9l-1.2,2.4c-0.1,0.2-0.2,0.5-0.2,0.7c0,0.3,0.1,0.5,0.2,0.7l1.2,2.4
		c0.1,0.2,0.2,0.2,0.3,0.2c0.1,0,0.3-0.1,0.3-0.2l1.2-2.4c0.1-0.2,0.2-0.5,0.2-0.7c0-0.3-0.1-0.5-0.2-0.7L115,5.9
		c-0.1-0.2-0.2-0.3-0.4-0.3S114.4,5.8,114.3,5.9z"/>
	<path d="M120.2,11.9V5.1c0-0.2,0.1-0.3,0.2-0.4s0.2-0.2,0.4-0.2s0.3,0.1,0.4,0.2s0.2,0.2,0.2,0.4v6.8c0,0.2,0.1,0.3,0.2,0.4
		s0.2,0.2,0.4,0.2h2.4c0.2,0,0.3-0.1,0.4-0.2s0.2-0.2,0.2-0.4V5.1c0-0.2,0.1-0.3,0.2-0.4s0.2-0.2,0.4-0.2s0.3,0.1,0.4,0.2
		s0.2,0.3,0.2,0.4v6.8c0,0.5-0.2,0.9-0.5,1.2s-0.7,0.5-1.2,0.5h-2.4c-0.5,0-0.9-0.2-1.2-0.5S120.2,12.4,120.2,11.9z"/>
	<path d="M128.7,13V4.5h4.1c0.5,0,0.9,0.2,1.2,0.5s0.5,0.7,0.5,1.2v0.7c0,0.5-0.2,0.9-0.5,1.2s-0.7,0.5-1.2,0.5H132l2.3,4
		c0.1,0.1,0.1,0.2,0.1,0.4c0,0.2-0.1,0.3-0.2,0.4c-0.1,0.1-0.3,0.2-0.4,0.2c-0.2,0-0.4-0.1-0.5-0.3l-2.7-4.6h-0.8V13
		c0,0.2-0.1,0.3-0.2,0.4s-0.3,0.2-0.4,0.2s-0.3-0.1-0.4-0.2S128.7,13.2,128.7,13z M129.8,7.5h2.9c0.2,0,0.3-0.1,0.4-0.2
		s0.2-0.2,0.2-0.4V6.3c0-0.2-0.1-0.3-0.2-0.4s-0.2-0.2-0.4-0.2h-2.9V7.5z"/>
	<path d="M137.7,4.5h4.6c0.2,0,0.3,0.1,0.4,0.2s0.2,0.2,0.2,0.4c0,0.2-0.1,0.3-0.2,0.4s-0.2,0.2-0.4,0.2h-1.7v6.8h1.7
		c0.2,0,0.3,0.1,0.4,0.2s0.2,0.2,0.2,0.4s-0.1,0.3-0.2,0.4s-0.2,0.2-0.4,0.2h-4.6c-0.2,0-0.3-0.1-0.4-0.2s-0.2-0.2-0.2-0.4
		s0.1-0.3,0.2-0.4s0.2-0.2,0.4-0.2h1.8V5.7h-1.8c-0.2,0-0.3-0.1-0.4-0.2s-0.2-0.2-0.2-0.4c0-0.2,0.1-0.3,0.2-0.4
		S137.5,4.5,137.7,4.5z"/>
	<path d="M146.9,4.5h3c0.4,0,0.7,0.2,1,0.5s0.5,0.7,0.5,1.1c0,0.2-0.1,0.3-0.2,0.4s-0.2,0.2-0.4,0.2c-0.2,0-0.3,0-0.4-0.1
		s-0.1-0.3-0.2-0.5c-0.1-0.2-0.2-0.4-0.4-0.4h-2.8c-0.1,0-0.2,0-0.2,0.1c0,0.1,0,0.1,0.1,0.2l4.3,5.4c0.2,0.3,0.3,0.5,0.3,0.8
		c0,0.3-0.1,0.6-0.4,0.9s-0.5,0.4-0.8,0.4h-3.1c-0.4,0-0.8-0.2-1.1-0.5s-0.5-0.7-0.5-1c0-0.4,0.2-0.6,0.6-0.6c0.2,0,0.3,0.1,0.4,0.2
		s0.2,0.2,0.2,0.4c0,0.1,0,0.2,0.1,0.3s0.2,0.1,0.3,0.1h2.9c0.1,0,0.2,0,0.2-0.1c0,0,0-0.1-0.1-0.2l-4.3-5.4
		c-0.2-0.3-0.3-0.5-0.3-0.8c0-0.4,0.1-0.7,0.4-0.9S146.5,4.5,146.9,4.5z"/>
	<path d="M163.8,4.5h3c0.4,0,0.7,0.2,1,0.5s0.5,0.7,0.5,1.1c0,0.2-0.1,0.3-0.2,0.4s-0.2,0.2-0.4,0.2c-0.2,0-0.3,0-0.4-0.1
		s-0.1-0.3-0.2-0.5c-0.1-0.2-0.2-0.4-0.4-0.4h-2.8c-0.1,0-0.2,0-0.2,0.1c0,0.1,0,0.1,0.1,0.2l4.3,5.4c0.2,0.3,0.3,0.5,0.3,0.8
		c0,0.3-0.1,0.6-0.4,0.9s-0.5,0.4-0.8,0.4H164c-0.4,0-0.8-0.2-1.1-0.5s-0.5-0.7-0.5-1c0-0.4,0.2-0.6,0.6-0.6c0.2,0,0.3,0.1,0.4,0.2
		s0.2,0.2,0.2,0.4c0,0.1,0,0.2,0.1,0.3s0.2,0.1,0.3,0.1h2.9c0.1,0,0.2,0,0.2-0.1c0,0,0-0.1-0.1-0.2l-4.3-5.4
		c-0.2-0.3-0.3-0.5-0.3-0.8c0-0.4,0.1-0.7,0.4-0.9S163.4,4.5,163.8,4.5z"/>
	<path d="M170.9,11.9V5.1c0-0.2,0.1-0.3,0.2-0.4s0.2-0.2,0.4-0.2s0.3,0.1,0.4,0.2s0.2,0.2,0.2,0.4v6.8c0,0.2,0.1,0.3,0.2,0.4
		s0.2,0.2,0.4,0.2h2.4c0.2,0,0.3-0.1,0.4-0.2s0.2-0.2,0.2-0.4V5.1c0-0.2,0.1-0.3,0.2-0.4s0.2-0.2,0.4-0.2s0.3,0.1,0.4,0.2
		s0.2,0.3,0.2,0.4v6.8c0,0.5-0.2,0.9-0.5,1.2s-0.7,0.5-1.2,0.5h-2.4c-0.5,0-0.9-0.2-1.2-0.5S170.9,12.4,170.9,11.9z"/>
	<path d="M179.4,13V4.5h4.1c0.5,0,0.9,0.2,1.2,0.5s0.5,0.7,0.5,1.2v0.7c0,0.5-0.2,0.9-0.5,1.2s-0.7,0.5-1.2,0.5h-0.7l2.3,4
		c0.1,0.1,0.1,0.2,0.1,0.4c0,0.2-0.1,0.3-0.2,0.4c-0.1,0.1-0.3,0.2-0.4,0.2c-0.2,0-0.4-0.1-0.5-0.3l-2.7-4.6h-0.8V13
		c0,0.2-0.1,0.3-0.2,0.4s-0.3,0.2-0.4,0.2s-0.3-0.1-0.4-0.2S179.4,13.2,179.4,13z M180.6,7.5h2.9c0.2,0,0.3-0.1,0.4-0.2
		s0.2-0.2,0.2-0.4V6.3c0-0.2-0.1-0.3-0.2-0.4s-0.2-0.2-0.4-0.2h-2.9V7.5z"/>
	<path d="M196.3,11.9V5.1c0-0.2,0.1-0.3,0.2-0.4s0.2-0.2,0.4-0.2s0.3,0.1,0.4,0.2s0.2,0.2,0.2,0.4v6.8c0,0.2,0.1,0.3,0.2,0.4
		s0.2,0.2,0.4,0.2h2.4c0.2,0,0.3-0.1,0.4-0.2c0.1-0.1,0.2-0.2,0.2-0.4V5.1c0-0.2,0.1-0.3,0.2-0.4c0.1-0.1,0.2-0.2,0.4-0.2
		s0.3,0.1,0.4,0.2c0.1,0.1,0.2,0.3,0.2,0.4v6.8c0,0.5-0.2,0.9-0.5,1.2c-0.3,0.3-0.7,0.5-1.2,0.5H198c-0.5,0-0.9-0.2-1.2-0.5
		S196.3,12.4,196.3,11.9z"/>
	<path d="M210.6,5.1v8.5H209l-3.1-7.1V13c0,0.2-0.1,0.3-0.2,0.4c-0.1,0.1-0.2,0.2-0.4,0.2s-0.3-0.1-0.4-0.2
		c-0.1-0.1-0.2-0.2-0.2-0.4V4.5h1.5l3.1,7V5.1c0-0.2,0.1-0.3,0.2-0.4c0.1-0.1,0.3-0.2,0.4-0.2s0.3,0.1,0.4,0.2
		C210.5,4.8,210.6,4.9,210.6,5.1z"/>
	<path d="M224.8,12.5h2.1c0.2,0,0.3,0.1,0.4,0.2s0.2,0.2,0.2,0.4s-0.1,0.3-0.2,0.4c-0.1,0.1-0.3,0.2-0.4,0.2h-2.1
		c-0.3,0-0.6-0.1-0.8-0.3s-0.5-0.4-0.6-0.6l-1.3-2.6c-0.2-0.4-0.3-0.7-0.3-1.1c0-0.4,0.1-0.8,0.3-1.1l1.3-2.5
		c0.1-0.2,0.3-0.4,0.6-0.6s0.5-0.3,0.8-0.3h2.3c0.2,0,0.3,0.1,0.4,0.2c0.1,0.1,0.2,0.2,0.2,0.4c0,0.2-0.1,0.3-0.2,0.4
		c-0.1,0.1-0.2,0.2-0.4,0.2h-2.2c-0.2,0-0.3,0.1-0.4,0.3l-1.3,2.4c-0.1,0.2-0.2,0.4-0.1,0.7c0,0.3,0.1,0.5,0.2,0.7l1.2,2.3
		C224.4,12.3,224.6,12.5,224.8,12.5z"/>
	<path d="M235.4,5.7h-4.1v2.8h1.8c0.2,0,0.3,0.1,0.4,0.2s0.2,0.2,0.2,0.4c0,0.2-0.1,0.3-0.2,0.4c-0.1,0.1-0.2,0.2-0.4,0.2h-1.8v2.8
		h4.1c0.2,0,0.3,0.1,0.4,0.2s0.2,0.2,0.2,0.4s-0.1,0.3-0.2,0.4c-0.1,0.1-0.3,0.2-0.4,0.2h-5.2V4.5h5.2c0.2,0,0.3,0.1,0.4,0.2
		c0.1,0.1,0.2,0.3,0.2,0.4c0,0.2-0.1,0.3-0.2,0.4C235.7,5.6,235.5,5.7,235.4,5.7z"/>
	<path d="M238.6,13V4.5h4.1c0.5,0,0.9,0.2,1.2,0.5c0.3,0.3,0.5,0.7,0.5,1.2v0.7c0,0.5-0.2,0.9-0.5,1.2s-0.7,0.5-1.2,0.5h-0.7l2.3,4
		c0.1,0.1,0.1,0.2,0.1,0.4c0,0.2-0.1,0.3-0.2,0.4c-0.1,0.1-0.3,0.2-0.4,0.2c-0.2,0-0.4-0.1-0.5-0.3l-2.7-4.6h-0.8V13
		c0,0.2-0.1,0.3-0.2,0.4c-0.1,0.1-0.3,0.2-0.4,0.2s-0.3-0.1-0.4-0.2C238.7,13.3,238.6,13.2,238.6,13z M239.8,7.5h2.9
		c0.2,0,0.3-0.1,0.4-0.2c0.1-0.1,0.2-0.2,0.2-0.4V6.3c0-0.2-0.1-0.3-0.2-0.4c-0.1-0.1-0.2-0.2-0.4-0.2h-2.9V7.5z"/>
	<path d="M250.2,12.5h2.1c0.2,0,0.3,0.1,0.4,0.2s0.2,0.2,0.2,0.4s-0.1,0.3-0.2,0.4c-0.1,0.1-0.3,0.2-0.4,0.2h-2.1
		c-0.3,0-0.6-0.1-0.8-0.3s-0.5-0.4-0.6-0.6l-1.3-2.6c-0.2-0.4-0.3-0.7-0.3-1.1c0-0.4,0.1-0.8,0.3-1.1l1.3-2.5
		c0.1-0.2,0.3-0.4,0.6-0.6s0.5-0.3,0.8-0.3h2.3c0.2,0,0.3,0.1,0.4,0.2c0.1,0.1,0.2,0.2,0.2,0.4c0,0.2-0.1,0.3-0.2,0.4
		c-0.1,0.1-0.2,0.2-0.4,0.2h-2.2c-0.2,0-0.3,0.1-0.4,0.3l-1.3,2.4c-0.1,0.2-0.2,0.4-0.1,0.7c0,0.3,0.1,0.5,0.2,0.7l1.2,2.3
		C249.8,12.3,250,12.5,250.2,12.5z"/>
	<path d="M255.5,13.6V5.1c0-0.2,0.1-0.3,0.2-0.4s0.2-0.2,0.4-0.2s0.3,0.1,0.4,0.2s0.2,0.2,0.2,0.4v7.4h4.1c0.2,0,0.3,0.1,0.4,0.2
		c0.1,0.1,0.2,0.2,0.2,0.4s-0.1,0.3-0.2,0.4c-0.1,0.1-0.3,0.2-0.4,0.2H255.5z"/>
	<path d="M269.2,5.7h-4.1v2.8h1.8c0.2,0,0.3,0.1,0.4,0.2s0.2,0.2,0.2,0.4c0,0.2-0.1,0.3-0.2,0.4c-0.1,0.1-0.2,0.2-0.4,0.2h-1.8v2.8
		h4.1c0.2,0,0.3,0.1,0.4,0.2s0.2,0.2,0.2,0.4s-0.1,0.3-0.2,0.4c-0.1,0.1-0.3,0.2-0.4,0.2H264V4.5h5.2c0.2,0,0.3,0.1,0.4,0.2
		c0.1,0.1,0.2,0.3,0.2,0.4c0,0.2-0.1,0.3-0.2,0.4C269.5,5.6,269.3,5.7,269.2,5.7z"/>
	<path d="M281.4,4.5h2.3c0.3,0,0.6,0.1,0.9,0.3c0.3,0.2,0.5,0.4,0.6,0.7l1.1,2.3c0.2,0.4,0.3,0.8,0.3,1.3c0,0.4-0.1,0.9-0.3,1.3
		l-1.1,2.3c-0.1,0.3-0.4,0.5-0.6,0.7s-0.6,0.3-0.9,0.3h-2.2c-0.2,0-0.3-0.1-0.4-0.2c-0.1-0.1-0.2-0.2-0.2-0.4c0-0.2,0.1-0.3,0.2-0.4
		c0.1-0.1,0.2-0.2,0.4-0.2h0.6V5.7h-0.6c-0.2,0-0.3-0.1-0.4-0.2c-0.1-0.1-0.2-0.3-0.2-0.4c0-0.2,0.1-0.3,0.2-0.4
		C281.2,4.6,281.3,4.5,281.4,4.5z M283.2,5.7v6.8l0.4,0c0.3,0,0.4-0.1,0.6-0.4l1.1-2.3c0.1-0.3,0.2-0.5,0.2-0.7
		c0-0.3-0.1-0.5-0.2-0.7L284.2,6c-0.1-0.2-0.3-0.3-0.6-0.3H283.2z"/>
	<path d="M294.6,5.7h-4.1v2.8h1.8c0.2,0,0.3,0.1,0.4,0.2s0.2,0.2,0.2,0.4c0,0.2-0.1,0.3-0.2,0.4c-0.1,0.1-0.2,0.2-0.4,0.2h-1.8v2.8
		h4.1c0.2,0,0.3,0.1,0.4,0.2s0.2,0.2,0.2,0.4s-0.1,0.3-0.2,0.4c-0.1,0.1-0.3,0.2-0.4,0.2h-5.2V4.5h5.2c0.2,0,0.3,0.1,0.4,0.2
		c0.1,0.1,0.2,0.3,0.2,0.4c0,0.2-0.1,0.3-0.2,0.4C294.8,5.6,294.7,5.7,294.6,5.7z"/>
	<path d="M309.4,12.5h2.1c0.2,0,0.3,0.1,0.4,0.2s0.2,0.2,0.2,0.4s-0.1,0.3-0.2,0.4c-0.1,0.1-0.3,0.2-0.4,0.2h-2.1
		c-0.3,0-0.6-0.1-0.8-0.3s-0.5-0.4-0.6-0.6l-1.3-2.6c-0.2-0.4-0.3-0.7-0.3-1.1c0-0.4,0.1-0.8,0.3-1.1l1.3-2.5
		c0.1-0.2,0.3-0.4,0.6-0.6s0.5-0.3,0.8-0.3h2.3c0.2,0,0.3,0.1,0.4,0.2c0.1,0.1,0.2,0.2,0.2,0.4c0,0.2-0.1,0.3-0.2,0.4
		c-0.1,0.1-0.2,0.2-0.4,0.2h-2.2c-0.2,0-0.3,0.1-0.4,0.3l-1.3,2.4c-0.1,0.2-0.2,0.4-0.1,0.7c0,0.3,0.1,0.5,0.2,0.7l1.2,2.3
		C309,12.3,309.1,12.5,309.4,12.5z"/>
	<path d="M319,5.4l1.3,2.6c0.2,0.4,0.3,0.7,0.3,1.1c0,0.4-0.1,0.8-0.3,1.1l-1.3,2.5c-0.3,0.6-0.7,0.8-1.4,0.8
		c-0.3,0-0.6-0.1-0.8-0.2c-0.2-0.2-0.4-0.4-0.6-0.6l-1.3-2.5c-0.2-0.3-0.3-0.7-0.3-1.1s0.1-0.8,0.3-1.1l1.3-2.6
		c0.3-0.6,0.7-0.8,1.4-0.8C318.2,4.5,318.7,4.8,319,5.4z M317.2,5.9L316,8.4c-0.1,0.2-0.2,0.5-0.2,0.7c0,0.3,0.1,0.5,0.2,0.7
		l1.2,2.4c0.1,0.2,0.2,0.2,0.3,0.2c0.1,0,0.3-0.1,0.3-0.2l1.2-2.4c0.1-0.2,0.2-0.5,0.2-0.7c0-0.3-0.1-0.5-0.2-0.7L318,5.9
		c-0.1-0.2-0.2-0.3-0.4-0.3S317.3,5.8,317.2,5.9z"/>
	<path d="M325.5,8.1V7.8l-1.2-1.7V13c0,0.2-0.1,0.3-0.2,0.4c-0.1,0.1-0.2,0.2-0.4,0.2s-0.3-0.1-0.4-0.2c-0.1-0.1-0.2-0.2-0.2-0.4
		V4.5h1.5l1.4,2.1l1.5-2.1h1.5V13c0,0.2-0.1,0.3-0.2,0.4c-0.1,0.1-0.3,0.2-0.4,0.2c-0.2,0-0.3-0.1-0.4-0.2s-0.2-0.2-0.2-0.4V6.1
		l-1.2,1.6v0.3c0,0.2-0.1,0.3-0.2,0.4s-0.2,0.2-0.4,0.2c-0.2,0-0.3-0.1-0.4-0.2C325.5,8.4,325.5,8.2,325.5,8.1z"/>
	<path d="M331.6,13V4.5h4.1c0.5,0,0.9,0.2,1.2,0.5c0.3,0.3,0.5,0.7,0.5,1.2v2.2c0,0.5-0.2,0.9-0.5,1.2s-0.7,0.5-1.2,0.5h-2.9V13
		c0,0.2-0.1,0.3-0.2,0.4c-0.1,0.1-0.2,0.2-0.4,0.2c-0.2,0-0.3-0.1-0.4-0.2S331.6,13.2,331.6,13z M332.8,9h2.9c0.2,0,0.3-0.1,0.4-0.2
		s0.2-0.2,0.2-0.4V6.3c0-0.2-0.1-0.3-0.2-0.4s-0.2-0.2-0.4-0.2h-2.9V9z"/>
	<path d="M345.3,5.7h-4.1v2.8h1.8c0.2,0,0.3,0.1,0.4,0.2s0.2,0.2,0.2,0.4c0,0.2-0.1,0.3-0.2,0.4c-0.1,0.1-0.2,0.2-0.4,0.2h-1.8v2.8
		h4.1c0.2,0,0.3,0.1,0.4,0.2s0.2,0.2,0.2,0.4s-0.1,0.3-0.2,0.4c-0.1,0.1-0.3,0.2-0.4,0.2h-5.2V4.5h5.2c0.2,0,0.3,0.1,0.4,0.2
		c0.1,0.1,0.2,0.3,0.2,0.4c0,0.2-0.1,0.3-0.2,0.4C345.6,5.6,345.4,5.7,345.3,5.7z"/>
	<path d="M348.5,6.1V4.5h5.8v1.6c0,0.2-0.1,0.3-0.2,0.4s-0.2,0.2-0.4,0.2c-0.2,0-0.3-0.1-0.4-0.2c-0.1-0.1-0.2-0.2-0.2-0.4V5.7H352
		V13c0,0.2-0.1,0.3-0.2,0.4s-0.2,0.2-0.4,0.2c-0.2,0-0.3-0.1-0.4-0.2s-0.2-0.2-0.2-0.4V5.7h-1.2v0.4c0,0.2-0.1,0.3-0.2,0.4
		c-0.1,0.1-0.2,0.2-0.4,0.2s-0.3-0.1-0.4-0.2C348.6,6.4,348.5,6.2,348.5,6.1z"/>
	<path d="M362.2,5.7h-4.1v2.8h1.8c0.2,0,0.3,0.1,0.4,0.2s0.2,0.2,0.2,0.4c0,0.2-0.1,0.3-0.2,0.4c-0.1,0.1-0.2,0.2-0.4,0.2h-1.8v2.8
		h4.1c0.2,0,0.3,0.1,0.4,0.2s0.2,0.2,0.2,0.4s-0.1,0.3-0.2,0.4c-0.1,0.1-0.3,0.2-0.4,0.2H357V4.5h5.2c0.2,0,0.3,0.1,0.4,0.2
		c0.1,0.1,0.2,0.3,0.2,0.4c0,0.2-0.1,0.3-0.2,0.4C362.5,5.6,362.4,5.7,362.2,5.7z"/>
	<path d="M371.2,5.1v8.5h-1.5l-3.1-7.1V13c0,0.2-0.1,0.3-0.2,0.4c-0.1,0.1-0.2,0.2-0.4,0.2s-0.3-0.1-0.4-0.2
		c-0.1-0.1-0.2-0.2-0.2-0.4V4.5h1.5l3.1,7V5.1c0-0.2,0.1-0.3,0.2-0.4c0.1-0.1,0.3-0.2,0.4-0.2s0.3,0.1,0.4,0.2
		C371.2,4.8,371.2,4.9,371.2,5.1z"/>
	<path d="M377.1,12.5h2.1c0.2,0,0.3,0.1,0.4,0.2s0.2,0.2,0.2,0.4s-0.1,0.3-0.2,0.4c-0.1,0.1-0.3,0.2-0.4,0.2H377
		c-0.3,0-0.6-0.1-0.8-0.3s-0.5-0.4-0.6-0.6l-1.3-2.6c-0.2-0.4-0.3-0.7-0.3-1.1c0-0.4,0.1-0.8,0.3-1.1l1.3-2.5
		c0.1-0.2,0.3-0.4,0.6-0.6s0.5-0.3,0.8-0.3h2.3c0.2,0,0.3,0.1,0.4,0.2c0.1,0.1,0.2,0.2,0.2,0.4c0,0.2-0.1,0.3-0.2,0.4
		c-0.1,0.1-0.2,0.2-0.4,0.2H377c-0.2,0-0.3,0.1-0.4,0.3l-1.3,2.4c-0.1,0.2-0.2,0.4-0.1,0.7c0,0.3,0.1,0.5,0.2,0.7l1.2,2.3
		C376.6,12.3,376.8,12.5,377.1,12.5z"/>
	<path d="M387.6,5.7h-4.1v2.8h1.8c0.2,0,0.3,0.1,0.4,0.2s0.2,0.2,0.2,0.4c0,0.2-0.1,0.3-0.2,0.4c-0.1,0.1-0.2,0.2-0.4,0.2h-1.8v2.8
		h4.1c0.2,0,0.3,0.1,0.4,0.2s0.2,0.2,0.2,0.4s-0.1,0.3-0.2,0.4c-0.1,0.1-0.3,0.2-0.4,0.2h-5.2V4.5h5.2c0.2,0,0.3,0.1,0.4,0.2
		c0.1,0.1,0.2,0.3,0.2,0.4c0,0.2-0.1,0.3-0.2,0.4C387.9,5.6,387.7,5.7,387.6,5.7z"/>
	<path d="M399.3,13V4.5h4.1c0.5,0,0.9,0.2,1.2,0.5c0.3,0.3,0.5,0.7,0.5,1.2v2.2c0,0.5-0.2,0.9-0.5,1.2s-0.7,0.5-1.2,0.5h-2.9V13
		c0,0.2-0.1,0.3-0.2,0.4c-0.1,0.1-0.2,0.2-0.4,0.2c-0.2,0-0.3-0.1-0.4-0.2S399.3,13.2,399.3,13z M400.4,9h2.9c0.2,0,0.3-0.1,0.4-0.2
		s0.2-0.2,0.2-0.4V6.3c0-0.2-0.1-0.3-0.2-0.4s-0.2-0.2-0.4-0.2h-2.9V9z"/>
	<path d="M412,5.4l1.3,2.6c0.2,0.4,0.3,0.7,0.3,1.1c0,0.4-0.1,0.8-0.3,1.1l-1.3,2.5c-0.3,0.6-0.7,0.8-1.4,0.8
		c-0.3,0-0.6-0.1-0.8-0.2c-0.2-0.2-0.4-0.4-0.6-0.6l-1.3-2.5c-0.2-0.3-0.3-0.7-0.3-1.1s0.1-0.8,0.3-1.1l1.3-2.6
		c0.3-0.6,0.7-0.8,1.4-0.8C411.3,4.5,411.7,4.8,412,5.4z M410.2,5.9L409,8.4c-0.1,0.2-0.2,0.5-0.2,0.7c0,0.3,0.1,0.5,0.2,0.7
		l1.2,2.4c0.1,0.2,0.2,0.2,0.3,0.2c0.1,0,0.3-0.1,0.3-0.2l1.2-2.4c0.1-0.2,0.2-0.5,0.2-0.7c0-0.3-0.1-0.5-0.2-0.7L411,5.9
		c-0.1-0.2-0.2-0.3-0.4-0.3S410.3,5.8,410.2,5.9z"/>
	<path d="M416.2,11.9V5.1c0-0.2,0.1-0.3,0.2-0.4s0.2-0.2,0.4-0.2s0.3,0.1,0.4,0.2s0.2,0.2,0.2,0.4v6.8c0,0.2,0.1,0.3,0.2,0.4
		s0.2,0.2,0.4,0.2h2.4c0.2,0,0.3-0.1,0.4-0.2c0.1-0.1,0.2-0.2,0.2-0.4V5.1c0-0.2,0.1-0.3,0.2-0.4c0.1-0.1,0.2-0.2,0.4-0.2
		s0.3,0.1,0.4,0.2c0.1,0.1,0.2,0.3,0.2,0.4v6.8c0,0.5-0.2,0.9-0.5,1.2c-0.3,0.3-0.7,0.5-1.2,0.5h-2.4c-0.5,0-0.9-0.2-1.2-0.5
		S416.2,12.4,416.2,11.9z"/>
	<path d="M424.7,13V4.5h4.1c0.5,0,0.9,0.2,1.2,0.5c0.3,0.3,0.5,0.7,0.5,1.2v0.7c0,0.5-0.2,0.9-0.5,1.2s-0.7,0.5-1.2,0.5H428l2.3,4
		c0.1,0.1,0.1,0.2,0.1,0.4c0,0.2-0.1,0.3-0.2,0.4c-0.1,0.1-0.3,0.2-0.4,0.2c-0.2,0-0.4-0.1-0.5-0.3l-2.7-4.6h-0.8V13
		c0,0.2-0.1,0.3-0.2,0.4c-0.1,0.1-0.3,0.2-0.4,0.2s-0.3-0.1-0.4-0.2C424.7,13.3,424.7,13.2,424.7,13z M425.8,7.5h2.9
		c0.2,0,0.3-0.1,0.4-0.2c0.1-0.1,0.2-0.2,0.2-0.4V6.3c0-0.2-0.1-0.3-0.2-0.4c-0.1-0.1-0.2-0.2-0.4-0.2h-2.9V7.5z"/>
	<path d="M441.6,13V4.5h4.1c0.5,0,0.9,0.2,1.2,0.5c0.3,0.3,0.5,0.7,0.5,1.2v2.2c0,0.5-0.2,0.9-0.5,1.2s-0.7,0.5-1.2,0.5h-2.9V13
		c0,0.2-0.1,0.3-0.2,0.4c-0.1,0.1-0.2,0.2-0.4,0.2c-0.2,0-0.3-0.1-0.4-0.2S441.6,13.2,441.6,13z M442.7,9h2.9c0.2,0,0.3-0.1,0.4-0.2
		s0.2-0.2,0.2-0.4V6.3c0-0.2-0.1-0.3-0.2-0.4s-0.2-0.2-0.4-0.2h-2.9V9z"/>
	<path d="M450,13.6V5.1c0-0.2,0.1-0.3,0.2-0.4s0.2-0.2,0.4-0.2s0.3,0.1,0.4,0.2s0.2,0.2,0.2,0.4v7.4h4.1c0.2,0,0.3,0.1,0.4,0.2
		c0.1,0.1,0.2,0.2,0.2,0.4s-0.1,0.3-0.2,0.4c-0.1,0.1-0.3,0.2-0.4,0.2H450z"/>
	<path d="M458.5,11.9V5.1c0-0.2,0.1-0.3,0.2-0.4s0.2-0.2,0.4-0.2s0.3,0.1,0.4,0.2s0.2,0.2,0.2,0.4v6.8c0,0.2,0.1,0.3,0.2,0.4
		s0.2,0.2,0.4,0.2h2.4c0.2,0,0.3-0.1,0.4-0.2c0.1-0.1,0.2-0.2,0.2-0.4V5.1c0-0.2,0.1-0.3,0.2-0.4c0.1-0.1,0.2-0.2,0.4-0.2
		s0.3,0.1,0.4,0.2c0.1,0.1,0.2,0.3,0.2,0.4v6.8c0,0.5-0.2,0.9-0.5,1.2c-0.3,0.3-0.7,0.5-1.2,0.5h-2.4c-0.5,0-0.9-0.2-1.2-0.5
		S458.5,12.4,458.5,11.9z"/>
	<path d="M468.2,4.5h3c0.4,0,0.7,0.2,1,0.5s0.5,0.7,0.5,1.1c0,0.2-0.1,0.3-0.2,0.4c-0.1,0.1-0.2,0.2-0.4,0.2c-0.2,0-0.3,0-0.4-0.1
		s-0.1-0.3-0.2-0.5s-0.2-0.4-0.4-0.4h-2.8c-0.1,0-0.2,0-0.2,0.1c0,0.1,0,0.1,0.1,0.2l4.3,5.4c0.2,0.3,0.3,0.5,0.3,0.8
		c0,0.3-0.1,0.6-0.4,0.9c-0.2,0.3-0.5,0.4-0.8,0.4h-3.1c-0.4,0-0.8-0.2-1.1-0.5c-0.3-0.3-0.5-0.7-0.5-1c0-0.4,0.2-0.6,0.6-0.6
		c0.2,0,0.3,0.1,0.4,0.2s0.2,0.2,0.2,0.4c0,0.1,0,0.2,0.1,0.3c0.1,0.1,0.2,0.1,0.3,0.1h2.9c0.1,0,0.2,0,0.2-0.1c0,0,0-0.1-0.1-0.2
		l-4.3-5.4c-0.2-0.3-0.3-0.5-0.3-0.8c0-0.4,0.1-0.7,0.4-0.9C467.5,4.7,467.9,4.5,468.2,4.5z"/>
	<path d="M484.4,4.5h2.3c0.3,0,0.6,0.1,0.9,0.3c0.3,0.2,0.5,0.4,0.6,0.7l1.1,2.3c0.2,0.4,0.3,0.8,0.3,1.3c0,0.4-0.1,0.9-0.3,1.3
		l-1.1,2.3c-0.1,0.3-0.4,0.5-0.6,0.7s-0.6,0.3-0.9,0.3h-2.2c-0.2,0-0.3-0.1-0.4-0.2c-0.1-0.1-0.2-0.2-0.2-0.4c0-0.2,0.1-0.3,0.2-0.4
		c0.1-0.1,0.2-0.2,0.4-0.2h0.6V5.7h-0.6c-0.2,0-0.3-0.1-0.4-0.2c-0.1-0.1-0.2-0.3-0.2-0.4c0-0.2,0.1-0.3,0.2-0.4
		C484.1,4.6,484.2,4.5,484.4,4.5z M486.1,5.7v6.8l0.4,0c0.3,0,0.4-0.1,0.6-0.4l1.1-2.3c0.1-0.3,0.2-0.5,0.2-0.7
		c0-0.3-0.1-0.5-0.2-0.7L487.1,6c-0.1-0.2-0.3-0.3-0.6-0.3H486.1z"/>
	<path d="M496.9,8.1c0,0.2-0.1,0.3-0.2,0.4c-0.1,0.1-0.2,0.2-0.4,0.2s-0.3-0.1-0.4-0.2c-0.1-0.1-0.2-0.2-0.2-0.4V5.7H494
		c-0.2,0-0.3-0.1-0.4-0.2c-0.1-0.1-0.2-0.3-0.2-0.4c0-0.2,0.1-0.3,0.2-0.4s0.2-0.2,0.4-0.2h2.3c0.2,0,0.3,0.1,0.4,0.2
		c0.1,0.1,0.2,0.3,0.2,0.4V8.1z"/>
	<path d="M501.3,4.5h4.6c0.2,0,0.3,0.1,0.4,0.2c0.1,0.1,0.2,0.2,0.2,0.4c0,0.2-0.1,0.3-0.2,0.4s-0.2,0.2-0.4,0.2h-1.7v6.8h1.7
		c0.2,0,0.3,0.1,0.4,0.2c0.1,0.1,0.2,0.2,0.2,0.4s-0.1,0.3-0.2,0.4s-0.2,0.2-0.4,0.2h-4.6c-0.2,0-0.3-0.1-0.4-0.2
		c-0.1-0.1-0.2-0.2-0.2-0.4s0.1-0.3,0.2-0.4c0.1-0.1,0.2-0.2,0.4-0.2h1.8V5.7h-1.8c-0.2,0-0.3-0.1-0.4-0.2c-0.1-0.1-0.2-0.2-0.2-0.4
		c0-0.2,0.1-0.3,0.2-0.4C501,4.6,501.1,4.5,501.3,4.5z"/>
	<path d="M515,5.1v8.5h-1.5l-3.1-7.1V13c0,0.2-0.1,0.3-0.2,0.4c-0.1,0.1-0.2,0.2-0.4,0.2s-0.3-0.1-0.4-0.2c-0.1-0.1-0.2-0.2-0.2-0.4
		V4.5h1.5l3.1,7V5.1c0-0.2,0.1-0.3,0.2-0.4c0.1-0.1,0.3-0.2,0.4-0.2s0.3,0.1,0.4,0.2C514.9,4.8,515,4.9,515,5.1z"/>
	<path d="M517.7,13V4.5h5.2c0.2,0,0.3,0.1,0.4,0.2c0.1,0.1,0.2,0.2,0.2,0.4c0,0.2-0.1,0.3-0.2,0.4s-0.2,0.2-0.4,0.2h-4.1v1.8h2.9
		c0.2,0,0.3,0.1,0.4,0.2c0.1,0.1,0.2,0.2,0.2,0.4s-0.1,0.3-0.2,0.4c-0.1,0.1-0.2,0.2-0.4,0.2h-2.9V13c0,0.2-0.1,0.3-0.2,0.4
		c-0.1,0.1-0.2,0.2-0.4,0.2s-0.3-0.1-0.4-0.2C517.7,13.3,517.7,13.2,517.7,13z"/>
	<path d="M530.4,5.4l1.3,2.6c0.2,0.4,0.3,0.7,0.3,1.1c0,0.4-0.1,0.8-0.3,1.1l-1.3,2.5c-0.3,0.6-0.7,0.8-1.4,0.8
		c-0.3,0-0.6-0.1-0.8-0.2c-0.2-0.2-0.4-0.4-0.6-0.6l-1.3-2.5c-0.2-0.3-0.3-0.7-0.3-1.1s0.1-0.8,0.3-1.1l1.3-2.6
		c0.3-0.6,0.7-0.8,1.4-0.8C529.6,4.5,530.1,4.8,530.4,5.4z M528.6,5.9l-1.2,2.4c-0.1,0.2-0.2,0.5-0.2,0.7c0,0.3,0.1,0.5,0.2,0.7
		l1.2,2.4c0.1,0.2,0.2,0.2,0.3,0.2c0.1,0,0.3-0.1,0.3-0.2l1.2-2.4c0.1-0.2,0.2-0.5,0.2-0.7c0-0.3-0.1-0.5-0.2-0.7l-1.2-2.4
		c-0.1-0.2-0.2-0.3-0.4-0.3S528.7,5.8,528.6,5.9z"/>
</g>
</svg>
